<?xml version="1.0" encoding="utf-8"?>
<!-- Generator: Adobe Illustrator 18.1.0, SVG Export Plug-In . SVG Version: 6.00 Build 0)  -->
<svg version="1.1" id="Calque_1" xmlns="http://www.w3.org/2000/svg" xmlns:xlink="http://www.w3.org/1999/xlink" x="0px" y="0px"
	 viewBox="0 0 50 10.8" enable-background="new 0 0 50 10.8" xml:space="preserve">
<g>
	<g>
		<path fill="#FFFFFF" d="M1.6,4.4c0-0.4,0-2.7-0.1-3c-0.2,0-0.9-0.1-1.2-0.1l0-0.3l2.3,0c1,0,2.3,0,3.1,0.3C6.3,1.6,6.7,2,6.7,2.7
			C6.7,3.4,6,4.4,5.2,5c0.1,0.3,1.9,3.5,3,4.8L7.7,9.8C6.9,9.4,4,5.7,3.9,5.5c-0.4,0-0.9,0.1-1,0.1v0.3c0,0.8,0,2.6,0.1,3.2
			C3.1,9.1,3.8,9.2,4,9.2l0,0.3c-0.3,0-1.4,0-1.9,0c-0.4,0-1.6,0-1.8,0l0-0.3c0.2,0,0.8-0.1,1.1-0.2c0-0.3,0.1-2.7,0.1-4V4.4z
			 M2.8,5.2c0.4,0,0.9,0,1.3-0.2S5.4,4.2,5.4,3c0-0.8-0.6-1.7-2.5-1.7c0,0.5-0.1,2.6-0.1,3.5V5.2z"/>
		<path fill="#FFFFFF" d="M9.7,4.8c0-1.1,0-3-0.1-3.4c-0.2,0-0.9-0.1-1.1-0.2l0-0.3c0.3,0,0.6,0,1,0c0.4,0,0.7,0,1,0
			c0.3,0,2.9,0,3.2-0.1c0-0.1,0.1-0.3,0.1-0.6l0.2,0c-0.1,0.3-0.2,2.1-0.2,2.5l-0.2-0.1c0-0.1,0-0.6,0-0.9c-0.2-0.3-1.9-0.5-2.4-0.5
			c0,0.2-0.1,2.5-0.1,3.2v0.2c0.9,0,2-0.1,2.2-0.2c0.1-0.2,0.1-0.3,0.1-0.5l0.2,0c0,0.2-0.2,1.9-0.3,2.3L13,6.2c0-0.3,0-0.6,0-0.8
			c-0.3-0.2-1.2-0.3-2.1-0.3v0.2c0,0.7,0,3.4,0.1,3.7c1.1,0,2.1-0.1,2.6-0.4c0.1-0.4,0.2-0.8,0.2-1.1l0.2-0.1
			c-0.1,0.3-0.3,2.2-0.4,2.8l-0.2,0c0-0.3,0-0.5,0-0.7c-0.3-0.1-2.7-0.1-3.4-0.1c-0.4,0-1.2,0-1.6,0l0.1-0.3c0.2,0,0.8-0.1,1.1-0.2
			c0-0.2,0.1-2.4,0.1-3.8V4.8z"/>
		<path fill="#FFFFFF" d="M15.3,1c0.6,0,1.6,0,2.5-0.1c0.2,0.4,2.4,3.4,2.6,3.7c0.3,0.3,2,2.7,2.4,3c0-1.3,0-5.6-0.2-6.2
			c-0.2,0-0.8-0.1-1.1-0.2L21.3,1c0.2,0,1.4,0,1.6,0s1.1,0,1.4,0l0,0.3c-0.1,0-0.5,0.1-0.8,0.2c-0.1,0.5-0.2,2.2-0.2,2.6
			c0,0.6-0.1,5.6-0.2,6.1c-0.3-0.3-3.3-4.2-3.6-4.5c-0.2-0.2-2.2-3-2.6-3.4c0,0.2,0.1,6.6,0.2,7c0.2,0.1,1,0.1,1.2,0.2l0,0.3
			c-0.2,0-1.3,0-1.6,0c-0.3,0-1.2,0-1.5,0l0-0.3c0.3,0,0.6-0.1,0.9-0.2c0.2-0.5,0.3-7.3,0.3-7.7c-0.2-0.1-0.8-0.1-1.2-0.1L15.3,1z"
			/>
		<path fill="#FFFFFF" d="M26.4,4.8c0-1.1,0-3-0.1-3.4c-0.2,0-0.9-0.1-1.1-0.2l0-0.3c0.3,0,0.6,0,1,0c0.4,0,0.7,0,1,0
			c0.3,0,2.9,0,3.2-0.1c0-0.1,0.1-0.3,0.1-0.6l0.2,0c-0.1,0.3-0.2,2.1-0.2,2.5l-0.2-0.1c0-0.1,0-0.6,0-0.9c-0.2-0.3-1.9-0.5-2.4-0.5
			c0,0.2-0.1,2.5-0.1,3.2v0.2c0.9,0,2-0.1,2.2-0.2C30,4.4,30,4.2,30,4.1l0.2,0c0,0.2-0.2,1.9-0.3,2.3l-0.2-0.1c0-0.3,0-0.6,0-0.8
			c-0.3-0.2-1.2-0.3-2.1-0.3v0.2c0,0.7,0,3.4,0.1,3.7c1.1,0,2.1-0.1,2.6-0.4c0.1-0.4,0.2-0.8,0.2-1.1l0.2-0.1
			c-0.1,0.3-0.3,2.2-0.4,2.8l-0.2,0c0-0.3,0-0.5,0-0.7c-0.3-0.1-2.7-0.1-3.4-0.1c-0.4,0-1.2,0-1.6,0l0.1-0.3c0.2,0,0.8-0.1,1.1-0.2
			c0-0.2,0.1-2.4,0.1-3.8V4.8z"/>
		<path fill="#FFFFFF" d="M39.4,3.6c0-0.2,0-0.8-0.1-1c-0.2-0.5-1.2-1.4-2.6-1.4c-2,0-3.2,1.6-3.2,3.5c0,2.3,1.7,4.3,4,4.3
			c0.8,0,1.8-0.1,2.6-0.7l-0.2,0.5c-0.2,0.2-1.3,0.7-3,0.7c-0.4,0-1.6,0-2.5-0.5C33,8.3,32.2,7,32.2,5.4c0-1.7,0.8-2.9,1.7-3.6
			c1.1-0.8,2.1-1,3.2-1c1,0,2,0.2,2.3,0.3c0.1-0.2,0.2-0.9,0.2-1.1L39.9,0c-0.2,1.3-0.2,2.6-0.2,3.7L39.4,3.6z"/>
		<path fill="#FFFFFF" d="M41.7,8.3c-0.8-0.9-1-1.8-1-2.9c0-2.4,1.8-4.6,4.8-4.6c1.1,0,2.1,0.2,3,1c0.9,0.7,1.3,1.9,1.3,3
			c0,2.9-2,4.9-4.7,4.9C44,9.6,42.7,9.4,41.7,8.3z M48.4,5.7c0-2.6-1.6-4.4-3.4-4.4c-1.5,0-3.1,1.1-3.1,3.6c0,2.2,1.6,4.3,3.7,4.3
			C47.1,9.1,48.4,7.6,48.4,5.7z"/>
	</g>
</g>
</svg>
